<svg id="Calque_1" data-name="Calque 1" xmlns="http://www.w3.org/2000/svg" viewBox="0 0 159.8 62.1"><defs><style>.cls-1,.cls-3{fill:#1d1d1b;}.cls-2{fill:none;stroke:#1d1d1b;stroke-miterlimit:10;}.cls-3{font-size:17px;font-family:NeueMachina-Light, Neue Machina;font-weight:300;}</style></defs><path class="cls-1" d="M39.7,47.5H34.9l-1.6,4.8H32.2l3.9-12h2.3l4,12H41.2Zm-.4-1-1.9-5.8h-.3l-1.9,5.8Z" transform="translate(0.5 0.5)"/><path class="cls-1" d="M44.1,40.3h3.8c2.9,0,4.6.7,4.6,3.4s-.8,2.6-2.1,2.8v.4h1.4c.6,0,.8.2.8.8v4.6H51.5V47.4H45.2v4.9H44.1Zm3.8,6.1c2.2,0,3.4-.2,3.4-2.5s-1.2-2.6-3.4-2.6H45.2v5.1Z" transform="translate(0.5 0.5)"/><path class="cls-1" d="M60.2,40.2A5,5,0,0,1,65.5,45H64.4c-.3-2.5-1.7-3.9-4.2-3.9s-4.4,2.2-4.4,5.2,1.4,5.2,4.4,5.2a3.9,3.9,0,0,0,4.2-3.8h1.1a5,5,0,0,1-5.3,4.8c-3.5,0-5.5-2.7-5.5-6.2S56.7,40.2,60.2,40.2Z" transform="translate(0.5 0.5)"/><path class="cls-1" d="M77.1,40.3v12H76V46.9H68.7v5.4H67.6v-12h1.1v5.6H76V40.3Z" transform="translate(0.5 0.5)"/><path class="cls-1" d="M83.1,41.3V51.4h2.7v.9H79.3v-.9H82V41.3H79.3v-1h6.5v1Z" transform="translate(0.5 0.5)"/><path class="cls-1" d="M97.2,41.3H93v11H91.9v-11H87.7v-1h9.5Z" transform="translate(0.5 0.5)"/><path class="cls-1" d="M99,40.3h7.2v1h-6.1v4.5h5.2v1h-5.2v4.6h6.1v.9H99Z" transform="translate(0.5 0.5)"/><path class="cls-1" d="M112.9,40.2a5,5,0,0,1,5.3,4.8h-1.1c-.3-2.5-1.7-3.9-4.2-3.9s-4.4,2.2-4.4,5.2,1.4,5.2,4.4,5.2a3.9,3.9,0,0,0,4.2-3.8h1.1a5,5,0,0,1-5.3,4.8c-3.5,0-5.5-2.7-5.5-6.2S109.4,40.2,112.9,40.2Z" transform="translate(0.5 0.5)"/><path class="cls-1" d="M127.9,41.3h-4.2v11h-1.1v-11h-4.2v-1h9.5Z" transform="translate(0.5 0.5)"/><path class="cls-1" d="M129.7,40.3h1.1v7.6c0,2.4,1,3.6,3.5,3.6s3.5-1.2,3.5-3.6V40.3h1.1v7.6c0,3-1.4,4.6-4.6,4.6s-4.6-1.6-4.6-4.6Z" transform="translate(0.5 0.5)"/><path class="cls-1" d="M141.2,40.3H145c2.9,0,4.5.7,4.5,3.4s-.8,2.6-2,2.8v.4h1.3c.7,0,.9.2.9.8v4.6h-1.1V47.4h-6.3v4.9h-1.1Zm3.8,6.1c2.1,0,3.4-.2,3.4-2.5s-1.3-2.6-3.4-2.6h-2.7v5.1Z" transform="translate(0.5 0.5)"/><path class="cls-1" d="M152.1,40.3h7.2v1h-6.1v4.5h5.2v1h-5.2v4.6h6.1v.9h-7.2Z" transform="translate(0.5 0.5)"/><rect class="cls-2" x="0.5" y="0.5" width="27.8" height="27.8"/><text class="cls-3" transform="translate(9.7 20.6)">E</text><text class="cls-3" transform="translate(40.9 20.6)">C</text><rect class="cls-2" x="33.5" y="0.5" width="27.8" height="27.8"/><rect class="cls-2" x="0.5" y="33.4" width="28.1" height="28.13"/><text class="cls-3" transform="translate(8.9 53.7)">V</text></svg>